<svg xmlns="http://www.w3.org/2000/svg" xmlns:xlink="http://www.w3.org/1999/xlink" viewBox="0,0,256,256" width="96px" height="96px"><defs><linearGradient x1="29.5" y1="19.006" x2="29.5" y2="46" gradientUnits="userSpaceOnUse" id="color-1"><stop offset="0" stop-color="#6dc7ff"></stop><stop offset="1" stop-color="#e6abff"></stop></linearGradient><linearGradient x1="29.5" y1="5.833" x2="29.5" y2="58.262" gradientUnits="userSpaceOnUse" id="color-2"><stop offset="0" stop-color="#1a6dff"></stop><stop offset="1" stop-color="#c822ff"></stop></linearGradient><linearGradient x1="32" y1="5.833" x2="32" y2="58.262" gradientUnits="userSpaceOnUse" id="color-3"><stop offset="0" stop-color="#1a6dff"></stop><stop offset="1" stop-color="#c822ff"></stop></linearGradient></defs><g fill="none" fill-rule="nonzero" stroke="none" stroke-width="1" stroke-linecap="butt" stroke-linejoin="miter" stroke-miterlimit="10" stroke-dasharray="" stroke-dashoffset="0" font-family="none" font-weight="none" font-size="none" text-anchor="none" style="mix-blend-mode: normal"><g transform="scale(4,4)"><path d="M22.007,35.25l17.015,-10.25l-12.011,12.5l10.535,8.275c1.887,0.83 2.574,-0.899 2.574,-0.899l4.825,-24.501c0,0 0.082,-0.625 0.045,-0.75c-0.344,-1.168 -2.228,-0.325 -2.227,-0.324l-27.557,10.887c0,0 -1.304,0.449 -1.201,1.278c0.103,0.83 1.167,1.209 1.167,1.209l6.837,2.575" fill="url(#color-1)"></path><path d="M45.949,19.343c-0.23,-0.784 -0.859,-1.269 -1.727,-1.33c-0.175,-0.013 -1.159,0.027 -1.823,0.365l-0.003,-0.007l-27.515,10.872c-0.885,0.304 -1.861,1.023 -1.881,2.087c-0.002,0.084 0.003,0.171 0.014,0.26c0.173,1.4 1.654,1.968 1.807,2.021l6.377,2.402c0.49,1.575 2.108,6.774 2.456,7.886c0.234,0.744 0.62,1.709 1.327,1.973c0.204,0.084 0.421,0.128 0.647,0.128c0.614,0 1.014,-0.312 1.163,-0.447l3.903,-3.89l6.235,4.897c0.065,0.052 0.138,0.096 0.215,0.129c0.517,0.228 0.976,0.31 1.367,0.31c0.409,0 0.745,-0.089 0.998,-0.193c1.067,-0.438 1.494,-1.447 1.54,-1.561c0.022,-0.057 0.04,-0.116 0.052,-0.176l4.835,-24.564c0.111,-0.836 0.051,-1.033 0.013,-1.162zM23.195,35.701l9.872,-5.947l-6.775,7.053c-0.12,0.124 -0.188,0.279 -0.229,0.442c-0.003,0.012 -1.006,4.43 -1.006,4.43zM43.963,20.188l-4.799,24.37c-0.057,0.098 -0.2,0.311 -0.413,0.398c-0.179,0.073 -0.412,0.055 -0.694,-0.053l-9.559,-7.507l11.245,-11.704c0.348,-0.361 0.374,-0.925 0.061,-1.316c-0.312,-0.391 -0.867,-0.491 -1.297,-0.232l-16.601,10l-6.389,-2.406c-0.196,-0.075 -0.398,-0.221 -0.481,-0.323c0.109,-0.096 0.329,-0.221 0.537,-0.296l27.558,-10.889c0.017,-0.006 0.033,-0.014 0.05,-0.021c0.251,-0.11 0.59,-0.192 0.803,-0.205c-0.01,0.1 -0.021,0.183 -0.021,0.184z" fill="url(#color-2)"></path><path d="M32,58c-14.337,0 -26,-11.664 -26,-26c0,-14.336 11.663,-26 26,-26c14.337,0 26,11.664 26,26c0,14.336 -11.663,26 -26,26zM32,8c-13.233,0 -24,10.767 -24,24c0,13.233 10.767,24 24,24c13.233,0 24,-10.767 24,-24c0,-13.233 -10.767,-24 -24,-24z" fill="url(#color-3)"></path></g></g></svg>